<?xml version="1.0" encoding="UTF-8" standalone="no"?><svg width="33px" height="32px" viewBox="0 0 33 32" version="1.1" xmlns="http://www.w3.org/2000/svg" xmlns:xlink="http://www.w3.org/1999/xlink" xmlns:sketch="http://www.bohemiancoding.com/sketch/ns">        <title>ic_cart_open</title>    <desc>Created with sketchtool.</desc>    <defs></defs>    <g id="Welcome" stroke="none" stroke-width="1" fill="none" fill-rule="evenodd" sketch:type="MSPage">        <g id="1.4-Homepage---Mobile-Portrait" sketch:type="MSArtboardGroup" transform="translate(-274.000000, -75.000000)" fill="#535657">            <g id="Group" sketch:type="MSLayerGroup" transform="translate(0.000000, 65.000000)">                <g id="icn_cart-+-5-+-Cart" transform="translate(274.000000, 1.000000)" sketch:type="MSShapeGroup">                    <g id="icn_cart-+-5">                        <path d="M13.6,37.8 C13.6,36.92 12.88,36.2 12,36.2 C11.12,36.2 10.4,36.92 10.4,37.8 C10.4,38.68 11.12,39.4 12,39.4 C12.88,39.4 13.6,38.68 13.6,37.8 M15.2,37.8 C15.2,39.56 13.76,41 12,41 C10.24,41 8.8,39.56 8.8,37.8 C8.8,36.04 10.24,34.6 12,34.6 C13.76,34.6 15.2,36.04 15.2,37.8 M28,37.8 C28,36.92 27.28,36.2 26.4,36.2 C25.52,36.2 24.8,36.92 24.8,37.8 C24.8,38.68 25.52,39.4 26.4,39.4 C27.28,39.4 28,38.68 28,37.8 M29.6,37.8 C29.6,39.56 28.16,41 26.4,41 C24.64,41 23.2,39.56 23.2,37.8 C23.2,36.04 24.64,34.6 26.4,34.6 C28.16,34.6 29.6,36.04 29.6,37.8 M27.2,28.2 L8.56,28.2 L8.56,28.36 C8.72,30.04 8.48,31.4 10.24,31.4 L30.4,31.4 C30.88,31.4 31.2,31.72 31.2,32.2 C31.2,32.68 30.88,33 30.4,33 L9.36,33 C7.1832,32.6584 7.12,31 6.88,28.52 L5.84,12.04 C5.76,10.36 4.32,10.6 2.64,10.6 L0.8,10.6 C0.32,10.6 0,10.28 0,9.8 C0,9.32 0.32,9 0.8,9 L2.64,9 C5.2,9 7.2336,9 7.52,11.88 L8.4,26.6 L27.2,26.6 C28.32,26.6 28.4,25.88 28.8,24.76 L31.0832,16.008 C31.4552,14.2248 32.08,14.6 32.08,14.6 C32.32,14.6 32.48,14.76 32.64,14.92 C32.8,15.08 32.8,15.4 32.8,15.56 L30.4,25.16 C29.76,27 29.9336,28.208 27.2,28.2" id="ic_cart_open"></path>                    </g>                </g>            </g>        </g>    </g></svg>